<svg xmlns="http://www.w3.org/2000/svg" viewBox="0 0 64 64" width="64" height="64">
  <defs>
    <linearGradient id="heartGrad" x1="0%" y1="0%" x2="100%" y2="100%">
      <stop offset="0%" stop-color="#f43f5e" />
      <stop offset="100%" stop-color="#e11d48" />
    </linearGradient>
    <linearGradient id="handGrad" x1="0%" y1="0%" x2="100%" y2="100%">
      <stop offset="0%" stop-color="#f97316" />
      <stop offset="100%" stop-color="#f59e0b" />
    </linearGradient>
  </defs>
  <!-- Background Heart -->
  <path d="M32,48 C32,48 50,34 50,22 C50,14 43.5,8 36,8 C32,8 32,12 32,12 C32,12 32,8 28,8 C20.5,8 14,14 14,22 C14,34 32,48 32,48 Z" fill="url(#heartGrad)" filter="drop-shadow(0px 4px 6px rgba(0, 0, 0, 0.15))"/>
  <!-- Caring Hands cradling the heart -->
  <path d="M10,42 C14,34 24,32 30,36 C24,40 22,48 24,54" fill="none" stroke="url(#handGrad)" stroke-width="4" stroke-linecap="round" filter="drop-shadow(0px 2px 3px rgba(0,0,0,0.15))"/>
  <path d="M54,42 C50,34 40,32 34,36 C40,40 42,48 40,54" fill="none" stroke="url(#handGrad)" stroke-width="4" stroke-linecap="round" filter="drop-shadow(0px 2px 3px rgba(0,0,0,0.15))"/>
  <!-- Family/People Silhouette -->
  <circle cx="32" cy="20" r="4" fill="#ffffff" opacity="0.9"/>
  <path d="M25,32 C25,27 39,27 39,32 Z" fill="#ffffff" opacity="0.9"/>
</svg>
